<svg width="26" height="28" viewBox="0 0 26 28" fill="none" xmlns="http://www.w3.org/2000/svg">
<path d="M3.27778 27.7778C2.51389 27.7778 1.85995 27.5058 1.31597 26.9618C0.771991 26.4178 0.5 25.7639 0.5 25V5.55556C0.5 4.79167 0.771991 4.13773 1.31597 3.59375C1.85995 3.04977 2.51389 2.77778 3.27778 2.77778H9.07639C9.33102 1.96759 9.8287 1.30208 10.5694 0.78125C11.3102 0.260417 12.1204 0 13 0C13.9259 0 14.7535 0.260417 15.4826 0.78125C16.2118 1.30208 16.7037 1.96759 16.9583 2.77778H22.7222C23.4861 2.77778 24.14 3.04977 24.684 3.59375C25.228 4.13773 25.5 4.79167 25.5 5.55556V25C25.5 25.7639 25.228 26.4178 24.684 26.9618C24.14 27.5058 23.4861 27.7778 22.7222 27.7778H3.27778ZM3.27778 25H22.7222V5.55556H19.9444V9.72222H6.05556V5.55556H3.27778V25ZM13 5.55556C13.3935 5.55556 13.7234 5.42245 13.9896 5.15625C14.2558 4.89005 14.3889 4.56019 14.3889 4.16667C14.3889 3.77315 14.2558 3.44329 13.9896 3.17708C13.7234 2.91088 13.3935 2.77778 13 2.77778C12.6065 2.77778 12.2766 2.91088 12.0104 3.17708C11.7442 3.44329 11.6111 3.77315 11.6111 4.16667C11.6111 4.56019 11.7442 4.89005 12.0104 5.15625C12.2766 5.42245 12.6065 5.55556 13 5.55556Z" fill="#555555"/>
</svg>
