<svg width="41" height="40" viewBox="0 0 41 40" fill="none" xmlns="http://www.w3.org/2000/svg">
<mask id="mask0_117_118" style="mask-type:alpha" maskUnits="userSpaceOnUse" x="0" y="0" width="41" height="40">
<rect x="0.5" width="40" height="40" fill="white"/>
</mask>
<g mask="url(#mask0_117_118)">
<path d="M11.8888 33.3334C10.4999 33.3334 9.34713 32.8379 8.43046 31.8471C7.51379 30.8566 7.10185 29.676 7.19463 28.3054H3.02796L3.63879 25.5279H8.31963C8.75463 25.0185 9.27768 24.6179 9.88879 24.3263C10.4999 24.0346 11.1666 23.8888 11.8888 23.8888C12.611 23.8888 13.2777 24.0346 13.8888 24.3263C14.4999 24.6179 15.0231 25.0185 15.4584 25.5279H23.278L27 9.4446H8.19463L8.33338 8.8471C8.48143 8.19905 8.80324 7.67363 9.29879 7.27085C9.79407 6.86808 10.3705 6.66669 11.028 6.66669H30.4721L28.875 13.6113H33.9721L38.8055 20.0554L37.1667 28.3054H33.8334C33.9259 29.676 33.5092 30.8566 32.5834 31.8471C31.6575 32.8379 30.5002 33.3334 29.1113 33.3334C27.7224 33.3334 26.5696 32.8379 25.653 31.8471C24.7363 30.8566 24.3242 29.676 24.4167 28.3054H16.6113C16.7038 29.676 16.2871 30.8566 15.3613 31.8471C14.4352 32.8379 13.2777 33.3334 11.8888 33.3334ZM26.9584 21.9446H35.6113L35.8334 20.7363L32.5834 16.3888H28.2363L26.9584 21.9446ZM26.7221 10.5696L27 9.4446L23.278 25.5279L23.528 24.4304L24.9446 18.3471L26.7221 10.5696ZM1.38879 21.9304L2.08338 19.1529H11.25L10.5555 21.9304H1.38879ZM4.72213 15.8471L5.41671 13.0696H16.25L15.5555 15.8471H4.72213ZM11.8888 30.5554C12.4352 30.5554 12.8959 30.3634 13.2709 29.9792C13.6459 29.595 13.8334 29.1391 13.8334 28.6113C13.8334 28.0649 13.6459 27.6042 13.2709 27.2292C12.8959 26.8542 12.4352 26.6667 11.8888 26.6667C11.361 26.6667 10.905 26.8542 10.5209 27.2292C10.1367 27.6042 9.94463 28.0649 9.94463 28.6113C9.94463 29.1391 10.1367 29.595 10.5209 29.9792C10.905 30.3634 11.361 30.5554 11.8888 30.5554ZM29.1113 30.5554C29.6574 30.5554 30.118 30.3634 30.493 29.9792C30.868 29.595 31.0555 29.1391 31.0555 28.6113C31.0555 28.0649 30.868 27.6042 30.493 27.2292C30.118 26.8542 29.6574 26.6667 29.1113 26.6667C28.5835 26.6667 28.1274 26.8542 27.743 27.2292C27.3588 27.6042 27.1667 28.0649 27.1667 28.6113C27.1667 29.1391 27.3588 29.595 27.743 29.9792C28.1274 30.3634 28.5835 30.5554 29.1113 30.5554Z" fill="white"/>
</g>
</svg>
