<svg width="15" height="20" viewBox="0 0 15 20" fill="none" xmlns="http://www.w3.org/2000/svg">
<path d="M7.5 20C5.73333 20 4.29167 19.7208 3.175 19.1625C2.05833 18.6042 1.5 17.8833 1.5 17C1.5 16.6 1.62083 16.2292 1.8625 15.8875C2.10417 15.5458 2.44167 15.25 2.875 15L4.45 16.475C4.3 16.5417 4.1375 16.6167 3.9625 16.7C3.7875 16.7833 3.65 16.8833 3.55 17C3.76667 17.2667 4.26667 17.5 5.05 17.7C5.83333 17.9 6.65 18 7.5 18C8.35 18 9.17083 17.9 9.9625 17.7C10.7542 17.5 11.2583 17.2667 11.475 17C11.3583 16.8667 11.2083 16.7583 11.025 16.675C10.8417 16.5917 10.6667 16.5167 10.5 16.45L12.05 14.95C12.5167 15.2167 12.875 15.5208 13.125 15.8625C13.375 16.2042 13.5 16.5833 13.5 17C13.5 17.8833 12.9417 18.6042 11.825 19.1625C10.7083 19.7208 9.26667 20 7.5 20ZM7.525 14.5C9.175 13.2833 10.4167 12.0625 11.25 10.8375C12.0833 9.6125 12.5 8.38333 12.5 7.15C12.5 5.45 11.9583 4.16667 10.875 3.3C9.79167 2.43333 8.66667 2 7.5 2C6.33333 2 5.20833 2.43333 4.125 3.3C3.04167 4.16667 2.5 5.45 2.5 7.15C2.5 8.26667 2.90833 9.42917 3.725 10.6375C4.54167 11.8458 5.80833 13.1333 7.525 14.5ZM7.5 17C5.15 15.2667 3.39583 13.5833 2.2375 11.95C1.07917 10.3167 0.5 8.71667 0.5 7.15C0.5 5.96667 0.7125 4.92917 1.1375 4.0375C1.5625 3.14583 2.10833 2.4 2.775 1.8C3.44167 1.2 4.19167 0.75 5.025 0.45C5.85833 0.15 6.68333 0 7.5 0C8.31667 0 9.14167 0.15 9.975 0.45C10.8083 0.75 11.5583 1.2 12.225 1.8C12.8917 2.4 13.4375 3.14583 13.8625 4.0375C14.2875 4.92917 14.5 5.96667 14.5 7.15C14.5 8.71667 13.9208 10.3167 12.7625 11.95C11.6042 13.5833 9.85 15.2667 7.5 17ZM7.5 9C8.05 9 8.52083 8.80417 8.9125 8.4125C9.30417 8.02083 9.5 7.55 9.5 7C9.5 6.45 9.30417 5.97917 8.9125 5.5875C8.52083 5.19583 8.05 5 7.5 5C6.95 5 6.47917 5.19583 6.0875 5.5875C5.69583 5.97917 5.5 6.45 5.5 7C5.5 7.55 5.69583 8.02083 6.0875 8.4125C6.47917 8.80417 6.95 9 7.5 9Z" fill="#E63946"/>
</svg>
