<svg width="25" height="24" viewBox="0 0 25 24" fill="none" xmlns="http://www.w3.org/2000/svg">
<path d="M5.83333 24V21.3333H11.1667V17.2C10.0778 16.9556 9.10556 16.4944 8.25 15.8167C7.39444 15.1389 6.76667 14.2889 6.36667 13.2667C4.7 13.0667 3.30556 12.3389 2.18333 11.0833C1.06111 9.82778 0.5 8.35556 0.5 6.66667V5.33333C0.5 4.6 0.761111 3.97222 1.28333 3.45C1.80556 2.92778 2.43333 2.66667 3.16667 2.66667H5.83333V0H19.1667V2.66667H21.8333C22.5667 2.66667 23.1944 2.92778 23.7167 3.45C24.2389 3.97222 24.5 4.6 24.5 5.33333V6.66667C24.5 8.35556 23.9389 9.82778 22.8167 11.0833C21.6944 12.3389 20.3 13.0667 18.6333 13.2667C18.2333 14.2889 17.6056 15.1389 16.75 15.8167C15.8944 16.4944 14.9222 16.9556 13.8333 17.2V21.3333H19.1667V24H5.83333ZM5.83333 10.4V5.33333H3.16667V6.66667C3.16667 7.51111 3.41111 8.27222 3.9 8.95C4.38889 9.62778 5.03333 10.1111 5.83333 10.4ZM12.5 14.6667C13.6111 14.6667 14.5556 14.2778 15.3333 13.5C16.1111 12.7222 16.5 11.7778 16.5 10.6667V2.66667H8.5V10.6667C8.5 11.7778 8.88889 12.7222 9.66667 13.5C10.4444 14.2778 11.3889 14.6667 12.5 14.6667ZM19.1667 10.4C19.9667 10.1111 20.6111 9.62778 21.1 8.95C21.5889 8.27222 21.8333 7.51111 21.8333 6.66667V5.33333H19.1667V10.4Z" fill="#555555"/>
</svg>
