<svg width="102" height="111" viewBox="0 0 102 111" fill="none" xmlns="http://www.w3.org/2000/svg">
<line opacity="0.2" x1="1.32971" x2="1.32971" y2="111" stroke="#555555"/>
<path d="M31.8297 38L32.591 37.3515L31.6516 36.2488L30.9535 37.5181L31.8297 38ZM43.3297 51.5L42.5685 52.1485L43.494 53.235L44.1992 51.994L43.3297 51.5ZM55.8297 29.5L56.5677 28.8252L55.6397 27.8102L54.9603 29.006L55.8297 29.5ZM71.8297 47L71.0917 47.6748L71.928 48.5894L72.6452 47.5787L71.8297 47ZM94.8156 15.8326C94.7231 15.2881 94.2068 14.9217 93.6623 15.0141L84.7893 16.5208C84.2448 16.6133 83.8784 17.1297 83.9708 17.6741C84.0633 18.2186 84.5797 18.5851 85.1241 18.4926L93.0112 17.1533L94.3506 25.0404C94.443 25.5849 94.9594 25.9513 95.5039 25.8589C96.0483 25.7664 96.4148 25.2501 96.3223 24.7056L94.8156 15.8326ZM20.8297 58L21.7059 58.4819L32.7059 38.4819L31.8297 38L30.9535 37.5181L19.9535 57.5181L20.8297 58ZM31.8297 38L31.0685 38.6485L42.5685 52.1485L43.3297 51.5L44.091 50.8515L32.591 37.3515L31.8297 38ZM43.3297 51.5L44.1992 51.994L56.6992 29.994L55.8297 29.5L54.9603 29.006L42.4603 51.006L43.3297 51.5ZM55.8297 29.5L55.0917 30.1748L71.0917 47.6748L71.8297 47L72.5677 46.3252L56.5677 28.8252L55.8297 29.5ZM71.8297 47L72.6452 47.5787L94.6452 16.5787L93.8297 16L93.0142 15.4213L71.0142 46.4213L71.8297 47Z" fill="#0CBA5A"/>
<path d="M23.8117 90.3L24.2317 87.29H21.2217L21.3617 86.31H24.3717L24.7917 83.3H25.7717L25.3517 86.31H28.3617L28.2217 87.29H25.2117L24.7917 90.3H23.8117ZM31.9608 91.182C31.3448 91.182 30.8011 91.0303 30.3298 90.727C29.8631 90.419 29.5131 90.0083 29.2798 89.495C29.0465 88.9817 28.9741 88.4147 29.0628 87.794C29.1141 87.4347 29.1981 87.129 29.3148 86.877C29.4361 86.6203 29.6018 86.3357 29.8118 86.023L33.2628 81.2H34.4038L31.8698 84.728C32.3038 84.5693 32.7261 84.4993 33.1368 84.518C33.5521 84.532 33.9348 84.623 34.2848 84.791C34.6395 84.959 34.9428 85.19 35.1948 85.484C35.4515 85.7733 35.6381 86.114 35.7548 86.506C35.8715 86.898 35.8971 87.3273 35.8318 87.794C35.7665 88.2607 35.6148 88.6993 35.3768 89.11C35.1435 89.516 34.8495 89.8753 34.4948 90.188C34.1401 90.496 33.7458 90.7387 33.3118 90.916C32.8778 91.0933 32.4275 91.182 31.9608 91.182ZM32.0938 90.202C32.5605 90.202 32.9921 90.09 33.3888 89.866C33.7855 89.6373 34.1121 89.3387 34.3688 88.97C34.6301 88.6013 34.7911 88.207 34.8518 87.787C34.9125 87.3483 34.8611 86.9493 34.6978 86.59C34.5345 86.226 34.2848 85.9367 33.9488 85.722C33.6175 85.5027 33.2301 85.393 32.7868 85.393C32.3295 85.393 31.9025 85.505 31.5058 85.729C31.1138 85.953 30.7871 86.247 30.5258 86.611C30.2645 86.9703 30.1035 87.3623 30.0428 87.787C29.9821 88.2443 30.0358 88.655 30.2038 89.019C30.3718 89.383 30.6215 89.6723 30.9528 89.887C31.2888 90.097 31.6691 90.202 32.0938 90.202ZM39.949 91.182C39.361 91.182 38.8523 91.0513 38.423 90.79C37.9983 90.524 37.6553 90.1577 37.394 89.691C37.1373 89.2243 36.967 88.6853 36.883 88.074C36.799 87.458 36.806 86.8 36.904 86.1C37.002 85.4 37.1793 84.742 37.436 84.126C37.6927 83.51 38.017 82.971 38.409 82.509C38.801 82.0423 39.2467 81.6783 39.746 81.417C40.2453 81.151 40.789 81.018 41.377 81.018C41.9603 81.018 42.4643 81.151 42.889 81.417C43.3137 81.6783 43.6543 82.0423 43.911 82.509C44.1677 82.971 44.338 83.51 44.422 84.126C44.506 84.742 44.499 85.4 44.401 86.1C44.303 86.8 44.1257 87.458 43.869 88.074C43.6123 88.6853 43.2903 89.2243 42.903 89.691C42.5157 90.1577 42.0723 90.524 41.573 90.79C41.0737 91.0513 40.5323 91.182 39.949 91.182ZM40.082 90.202C40.7027 90.202 41.2463 90.013 41.713 89.635C42.1843 89.257 42.5693 88.7577 42.868 88.137C43.1667 87.5117 43.3673 86.8327 43.47 86.1C43.582 85.3253 43.5727 84.63 43.442 84.014C43.3113 83.3933 43.0617 82.9033 42.693 82.544C42.3243 82.18 41.839 81.998 41.237 81.998C40.761 81.998 40.3317 82.1077 39.949 82.327C39.5663 82.5463 39.2303 82.8473 38.941 83.23C38.6517 83.6127 38.4137 84.0513 38.227 84.546C38.045 85.036 37.9143 85.554 37.835 86.1C37.7323 86.8373 37.744 87.5187 37.87 88.144C37.996 88.7647 38.241 89.264 38.605 89.642C38.9737 90.0153 39.466 90.202 40.082 90.202ZM45.2229 91L52.2509 81.2H53.3849L46.3569 91H45.2229ZM47.2109 85.029C46.9029 85.029 46.6322 84.9543 46.3989 84.805C46.1655 84.6557 45.9905 84.455 45.8739 84.203C45.7572 83.9463 45.7222 83.664 45.7689 83.356C45.8155 83.0387 45.9322 82.754 46.1189 82.502C46.3055 82.25 46.5365 82.0493 46.8119 81.9C47.0872 81.7507 47.3765 81.676 47.6799 81.676C47.9879 81.676 48.2562 81.753 48.4849 81.907C48.7182 82.0563 48.8932 82.257 49.0099 82.509C49.1265 82.761 49.1615 83.0433 49.1149 83.356C49.0729 83.6687 48.9562 83.951 48.7649 84.203C48.5782 84.455 48.3472 84.6557 48.0719 84.805C47.8012 84.9543 47.5142 85.029 47.2109 85.029ZM47.3159 84.28C47.5772 84.28 47.8082 84.1913 48.0089 84.014C48.2142 83.832 48.3332 83.6127 48.3659 83.356C48.4032 83.0947 48.3449 82.8753 48.1909 82.698C48.0415 82.516 47.8362 82.425 47.5749 82.425C47.3182 82.425 47.0872 82.516 46.8819 82.698C46.6765 82.8753 46.5552 83.0947 46.5179 83.356C46.4852 83.6127 46.5459 83.832 46.6999 84.014C46.8539 84.1913 47.0592 84.28 47.3159 84.28ZM50.9419 90.531C50.6339 90.531 50.3632 90.454 50.1299 90.3C49.8965 90.1413 49.7215 89.936 49.6049 89.684C49.4929 89.4273 49.4579 89.1497 49.4999 88.851C49.5419 88.5383 49.6562 88.256 49.8429 88.004C50.0342 87.7473 50.2675 87.5443 50.5429 87.395C50.8229 87.2457 51.1122 87.171 51.4109 87.171C51.7282 87.171 52.0012 87.248 52.2299 87.402C52.4632 87.556 52.6359 87.7613 52.7479 88.018C52.8599 88.27 52.8949 88.5477 52.8529 88.851C52.8109 89.159 52.6965 89.4413 52.5099 89.698C52.3232 89.95 52.0922 90.153 51.8169 90.307C51.5415 90.4563 51.2499 90.531 50.9419 90.531ZM51.0469 89.782C51.2989 89.782 51.5299 89.691 51.7399 89.509C51.9499 89.327 52.0712 89.1077 52.1039 88.851C52.1412 88.5943 52.0805 88.375 51.9219 88.193C51.7632 88.011 51.5579 87.92 51.3059 87.92C51.0492 87.92 50.8159 88.011 50.6059 88.193C50.4005 88.375 50.2792 88.5943 50.2419 88.851C50.2092 89.1077 50.2699 89.327 50.4239 89.509C50.5825 89.691 50.7902 89.782 51.0469 89.782Z" fill="#0CBA5A"/>
</svg>
