<svg width="29" height="28" viewBox="0 0 29 28" fill="none" xmlns="http://www.w3.org/2000/svg">
<path d="M19.05 4.2C18.56 4.2 18.1458 4.03083 17.8075 3.6925C17.4692 3.35417 17.3 2.94 17.3 2.45C17.3 1.96 17.4692 1.54583 17.8075 1.2075C18.1458 0.869167 18.56 0.7 19.05 0.7C19.54 0.7 19.9542 0.869167 20.2925 1.2075C20.6308 1.54583 20.8 1.96 20.8 2.45C20.8 2.94 20.6308 3.35417 20.2925 3.6925C19.9542 4.03083 19.54 4.2 19.05 4.2ZM19.05 27.3C18.56 27.3 18.1458 27.1308 17.8075 26.7925C17.4692 26.4542 17.3 26.04 17.3 25.55C17.3 25.06 17.4692 24.6458 17.8075 24.3075C18.1458 23.9692 18.56 23.8 19.05 23.8C19.54 23.8 19.9542 23.9692 20.2925 24.3075C20.6308 24.6458 20.8 25.06 20.8 25.55C20.8 26.04 20.6308 26.4542 20.2925 26.7925C19.9542 27.1308 19.54 27.3 19.05 27.3ZM24.65 9.1C24.16 9.1 23.7458 8.93083 23.4075 8.5925C23.0692 8.25417 22.9 7.84 22.9 7.35C22.9 6.86 23.0692 6.44583 23.4075 6.1075C23.7458 5.76917 24.16 5.6 24.65 5.6C25.14 5.6 25.5542 5.76917 25.8925 6.1075C26.2308 6.44583 26.4 6.86 26.4 7.35C26.4 7.84 26.2308 8.25417 25.8925 8.5925C25.5542 8.93083 25.14 9.1 24.65 9.1ZM24.65 22.4C24.16 22.4 23.7458 22.2308 23.4075 21.8925C23.0692 21.5542 22.9 21.14 22.9 20.65C22.9 20.16 23.0692 19.7458 23.4075 19.4075C23.7458 19.0692 24.16 18.9 24.65 18.9C25.14 18.9 25.5542 19.0692 25.8925 19.4075C26.2308 19.7458 26.4 20.16 26.4 20.65C26.4 21.14 26.2308 21.5542 25.8925 21.8925C25.5542 22.2308 25.14 22.4 24.65 22.4ZM26.75 15.75C26.26 15.75 25.8458 15.5808 25.5075 15.2425C25.1692 14.9042 25 14.49 25 14C25 13.51 25.1692 13.0958 25.5075 12.7575C25.8458 12.4192 26.26 12.25 26.75 12.25C27.24 12.25 27.6542 12.4192 27.9925 12.7575C28.3308 13.0958 28.5 13.51 28.5 14C28.5 14.49 28.3308 14.9042 27.9925 15.2425C27.6542 15.5808 27.24 15.75 26.75 15.75ZM14.5 28C12.5633 28 10.7433 27.6325 9.04 26.8975C7.33667 26.1625 5.855 25.165 4.595 23.905C3.335 22.645 2.3375 21.1633 1.6025 19.46C0.8675 17.7567 0.5 15.9367 0.5 14C0.5 12.0633 0.8675 10.2433 1.6025 8.54C2.3375 6.83667 3.335 5.355 4.595 4.095C5.855 2.835 7.33667 1.8375 9.04 1.1025C10.7433 0.3675 12.5633 0 14.5 0V2.8C11.3733 2.8 8.725 3.885 6.555 6.055C4.385 8.225 3.3 10.8733 3.3 14C3.3 17.1267 4.385 19.775 6.555 21.945C8.725 24.115 11.3733 25.2 14.5 25.2V28ZM19.12 20.58L13.1 14.56V7H15.9V13.44L21.08 18.62L19.12 20.58Z" fill="#112E46"/>
</svg>
