<svg width="22" height="24" viewBox="0 0 22 24" fill="none" xmlns="http://www.w3.org/2000/svg">
<path d="M3.12198 21.3333H18.878L17.007 8H4.99301L3.12198 21.3333ZM11 5.33333C11.372 5.33333 11.6839 5.20556 11.9355 4.95C12.1872 4.69444 12.313 4.37778 12.313 4C12.313 3.62222 12.1872 3.30556 11.9355 3.05C11.6839 2.79444 11.372 2.66667 11 2.66667C10.628 2.66667 10.3161 2.79444 10.0645 3.05C9.81283 3.30556 9.687 3.62222 9.687 4C9.687 4.37778 9.81283 4.69444 10.0645 4.95C10.3161 5.20556 10.628 5.33333 11 5.33333ZM14.7092 5.33333H17.007C17.6635 5.33333 18.2325 5.55556 18.7139 6C19.1953 6.44444 19.4908 6.98889 19.6002 7.63333L21.4712 20.9667C21.5806 21.7667 21.3782 22.4722 20.8639 23.0833C20.3497 23.6944 19.6877 24 18.878 24H3.12198C2.31229 24 1.65032 23.6944 1.13606 23.0833C0.621798 22.4722 0.419377 21.7667 0.528794 20.9667L2.39982 7.63333C2.50924 6.98889 2.80467 6.44444 3.2861 6C3.76754 5.55556 4.33651 5.33333 4.99301 5.33333H7.29076C7.22511 5.11111 7.17041 4.89444 7.12664 4.68333C7.08287 4.47222 7.06099 4.24444 7.06099 4C7.06099 2.88889 7.44395 1.94444 8.20987 1.16667C8.97579 0.388889 9.90583 0 11 0C12.0942 0 13.0242 0.388889 13.7901 1.16667C14.5561 1.94444 14.939 2.88889 14.939 4C14.939 4.24444 14.9171 4.47222 14.8734 4.68333C14.8296 4.89444 14.7749 5.11111 14.7092 5.33333Z" fill="#555555"/>
</svg>
