<svg width="28" height="24" viewBox="0 0 28 24" fill="none" xmlns="http://www.w3.org/2000/svg">
<path d="M7.75625 23.9939C6.94625 23.9718 6.17562 23.7665 5.44438 23.3783C4.71313 22.99 4.02125 22.4188 3.36875 21.6644C2.46875 20.5995 1.76562 19.3294 1.25937 17.854C0.753125 16.3787 0.5 14.8645 0.5 13.3115C0.5 11.4701 0.854375 9.73957 1.56313 8.12001C2.27187 6.50044 3.23375 5.09164 4.44875 3.89361C5.66375 2.69558 7.0925 1.74713 8.735 1.04828C10.3775 0.349426 12.1325 0 14 0C15.8675 0 17.6225 0.354973 19.265 1.06492C20.9075 1.77486 22.3363 2.73995 23.5513 3.96017C24.7663 5.18039 25.7281 6.61137 26.4369 8.25312C27.1456 9.89487 27.5 11.6586 27.5 13.5444C27.5 15.2527 27.2188 16.8501 26.6562 18.3366C26.0938 19.823 25.295 21.0765 24.26 22.0971C23.63 22.7183 22.9662 23.1897 22.2688 23.5114C21.5713 23.8331 20.8625 23.9939 20.1425 23.9939C19.7375 23.9939 19.3325 23.944 18.9275 23.8442C18.5225 23.7444 18.1175 23.5946 17.7125 23.3949L15.8225 22.4631C15.5525 22.33 15.2656 22.2302 14.9619 22.1636C14.6581 22.0971 14.3375 22.0638 14 22.0638C13.6625 22.0638 13.3419 22.0971 13.0381 22.1636C12.7344 22.2302 12.4475 22.33 12.1775 22.4631L10.2875 23.3949C9.86 23.6168 9.43812 23.7776 9.02188 23.8775C8.60563 23.9773 8.18375 24.0161 7.75625 23.9939ZM7.82375 21.3317C8.02625 21.3317 8.23438 21.3095 8.44812 21.2651C8.66187 21.2207 8.87 21.1431 9.0725 21.0321L10.9625 20.1003C11.435 19.8563 11.9244 19.6788 12.4306 19.5679C12.9369 19.457 13.4487 19.4015 13.9663 19.4015C14.4838 19.4015 15.0012 19.457 15.5187 19.5679C16.0362 19.6788 16.5312 19.8563 17.0037 20.1003L18.9275 21.0321C19.13 21.1431 19.3325 21.2207 19.535 21.2651C19.7375 21.3095 19.94 21.3317 20.1425 21.3317C20.57 21.3317 20.975 21.2207 21.3575 20.9989C21.74 20.777 22.1225 20.4442 22.505 20.0005C23.225 19.1574 23.7875 18.148 24.1925 16.9721C24.5975 15.7963 24.8 14.5872 24.8 13.3448C24.8 10.3719 23.7537 7.84823 21.6612 5.77386C19.5688 3.69948 17.015 2.6623 14 2.6623C10.985 2.6623 8.43125 3.70503 6.33875 5.7905C4.24625 7.87596 3.2 10.4051 3.2 13.378C3.2 14.6426 3.40812 15.8739 3.82437 17.072C4.24062 18.27 4.82 19.2795 5.5625 20.1003C5.945 20.5441 6.31625 20.8602 6.67625 21.0488C7.03625 21.2374 7.41875 21.3317 7.82375 21.3317ZM14 15.9738C14.7425 15.9738 15.3781 15.7131 15.9069 15.1917C16.4356 14.6704 16.7 14.0436 16.7 13.3115C16.7 13.134 16.6831 12.9565 16.6494 12.779C16.6156 12.6015 16.565 12.4241 16.4975 12.2466L18.185 10.0169C18.41 10.3053 18.6069 10.6104 18.7756 10.9321C18.9444 11.2537 19.085 11.6032 19.1975 11.9803H21.965C21.6275 10.028 20.7106 8.43061 19.2144 7.1882C17.7181 5.9458 15.98 5.32459 14 5.32459C12.02 5.32459 10.2762 5.95134 8.76875 7.20484C7.26125 8.45834 6.35 10.0502 6.035 11.9803H8.8025C9.1175 10.7823 9.75875 9.81722 10.7262 9.08509C11.6937 8.35296 12.785 7.98689 14 7.98689C14.3825 7.98689 14.7425 8.02017 15.08 8.08673C15.4175 8.15328 15.7437 8.25312 16.0587 8.38624L14.3375 10.6825C14.2925 10.6825 14.2362 10.6769 14.1687 10.6658C14.1012 10.6547 14.045 10.6492 14 10.6492C13.2575 10.6492 12.6219 10.9099 12.0931 11.4312C11.5644 11.9526 11.3 12.5794 11.3 13.3115C11.3 14.0436 11.5644 14.6704 12.0931 15.1917C12.6219 15.7131 13.2575 15.9738 14 15.9738Z" fill="#555555"/>
</svg>
