<svg width="27" height="24" viewBox="0 0 27 24" fill="none" xmlns="http://www.w3.org/2000/svg">
<path d="M22.6 24C21.755 24 20.9967 23.75 20.325 23.25C19.6533 22.75 19.1875 22.1111 18.9275 21.3333H12.2C10.77 21.3333 9.54583 20.8111 8.5275 19.7667C7.50917 18.7222 7 17.4667 7 16C7 14.5333 7.50917 13.2778 8.5275 12.2333C9.54583 11.1889 10.77 10.6667 12.2 10.6667H14.8C15.515 10.6667 16.1271 10.4056 16.6362 9.88333C17.1454 9.36111 17.4 8.73333 17.4 8C17.4 7.26667 17.1454 6.63889 16.6362 6.11667C16.1271 5.59444 15.515 5.33333 14.8 5.33333H8.0725C7.79083 6.11111 7.31958 6.75 6.65875 7.25C5.99792 7.75 5.245 8 4.4 8C3.31667 8 2.39583 7.61111 1.6375 6.83333C0.879167 6.05556 0.5 5.11111 0.5 4C0.5 2.88889 0.879167 1.94444 1.6375 1.16667C2.39583 0.388889 3.31667 0 4.4 0C5.245 0 5.99792 0.25 6.65875 0.75C7.31958 1.25 7.79083 1.88889 8.0725 2.66667H14.8C16.23 2.66667 17.4542 3.18889 18.4725 4.23333C19.4908 5.27778 20 6.53333 20 8C20 9.46667 19.4908 10.7222 18.4725 11.7667C17.4542 12.8111 16.23 13.3333 14.8 13.3333H12.2C11.485 13.3333 10.8729 13.5944 10.3637 14.1167C9.85458 14.6389 9.6 15.2667 9.6 16C9.6 16.7333 9.85458 17.3611 10.3637 17.8833C10.8729 18.4056 11.485 18.6667 12.2 18.6667H18.9275C19.2092 17.8889 19.6804 17.25 20.3412 16.75C21.0021 16.25 21.755 16 22.6 16C23.6833 16 24.6042 16.3889 25.3625 17.1667C26.1208 17.9444 26.5 18.8889 26.5 20C26.5 21.1111 26.1208 22.0556 25.3625 22.8333C24.6042 23.6111 23.6833 24 22.6 24ZM4.4 5.33333C4.76833 5.33333 5.07708 5.20556 5.32625 4.95C5.57542 4.69444 5.7 4.37778 5.7 4C5.7 3.62222 5.57542 3.30556 5.32625 3.05C5.07708 2.79444 4.76833 2.66667 4.4 2.66667C4.03167 2.66667 3.72292 2.79444 3.47375 3.05C3.22458 3.30556 3.1 3.62222 3.1 4C3.1 4.37778 3.22458 4.69444 3.47375 4.95C3.72292 5.20556 4.03167 5.33333 4.4 5.33333Z" fill="#555555"/>
</svg>
