<svg width="34" height="24" viewBox="0 0 34 24" fill="none" xmlns="http://www.w3.org/2000/svg">
<path d="M8.75 24C6.475 24 4.53125 23.2125 2.91875 21.6375C1.30625 20.0625 0.5 18.1375 0.5 15.8625C0.5 13.9125 1.0875 12.175 2.2625 10.65C3.4375 9.125 4.975 8.15 6.875 7.725C7.5 5.425 8.75 3.5625 10.625 2.1375C12.5 0.7125 14.625 0 17 0C19.925 0 22.4063 1.01875 24.4438 3.05625C26.4813 5.09375 27.5 7.575 27.5 10.5C29.225 10.7 30.6563 11.4438 31.7938 12.7313C32.9313 14.0188 33.5 15.525 33.5 17.25C33.5 19.125 32.8438 20.7188 31.5312 22.0312C30.2188 23.3438 28.625 24 26.75 24H8.75ZM8.75 21H26.75C27.8 21 28.6875 20.6375 29.4125 19.9125C30.1375 19.1875 30.5 18.3 30.5 17.25C30.5 16.2 30.1375 15.3125 29.4125 14.5875C28.6875 13.8625 27.8 13.5 26.75 13.5H24.5V10.5C24.5 8.425 23.7688 6.65625 22.3063 5.19375C20.8438 3.73125 19.075 3 17 3C14.925 3 13.1563 3.73125 11.6938 5.19375C10.2313 6.65625 9.5 8.425 9.5 10.5H8.75C7.3 10.5 6.0625 11.0125 5.0375 12.0375C4.0125 13.0625 3.5 14.3 3.5 15.75C3.5 17.2 4.0125 18.4375 5.0375 19.4625C6.0625 20.4875 7.3 21 8.75 21Z" fill="#555555"/>
</svg>
