<svg width="34" height="24" viewBox="0 0 34 24" fill="none" xmlns="http://www.w3.org/2000/svg">
<path d="M8 24C6.75 24 5.6875 23.5625 4.8125 22.6875C3.9375 21.8125 3.5 20.75 3.5 19.5H0.5V3C0.5 2.175 0.79375 1.46875 1.38125 0.88125C1.96875 0.29375 2.675 0 3.5 0H24.5V6H29L33.5 12V19.5H30.5C30.5 20.75 30.0625 21.8125 29.1875 22.6875C28.3125 23.5625 27.25 24 26 24C24.75 24 23.6875 23.5625 22.8125 22.6875C21.9375 21.8125 21.5 20.75 21.5 19.5H12.5C12.5 20.75 12.0625 21.8125 11.1875 22.6875C10.3125 23.5625 9.25 24 8 24ZM8 21C8.425 21 8.78125 20.8563 9.06875 20.5688C9.35625 20.2812 9.5 19.925 9.5 19.5C9.5 19.075 9.35625 18.7188 9.06875 18.4313C8.78125 18.1438 8.425 18 8 18C7.575 18 7.21875 18.1438 6.93125 18.4313C6.64375 18.7188 6.5 19.075 6.5 19.5C6.5 19.925 6.64375 20.2812 6.93125 20.5688C7.21875 20.8563 7.575 21 8 21ZM3.5 16.5H4.7C5.125 16.05 5.6125 15.6875 6.1625 15.4125C6.7125 15.1375 7.325 15 8 15C8.675 15 9.2875 15.1375 9.8375 15.4125C10.3875 15.6875 10.875 16.05 11.3 16.5H21.5V3H3.5V16.5ZM26 21C26.425 21 26.7813 20.8563 27.0688 20.5688C27.3563 20.2812 27.5 19.925 27.5 19.5C27.5 19.075 27.3563 18.7188 27.0688 18.4313C26.7813 18.1438 26.425 18 26 18C25.575 18 25.2188 18.1438 24.9313 18.4313C24.6438 18.7188 24.5 19.075 24.5 19.5C24.5 19.925 24.6438 20.2812 24.9313 20.5688C25.2188 20.8563 25.575 21 26 21ZM24.5 13.5H30.875L27.5 9H24.5V13.5Z" fill="#555555"/>
</svg>
