<svg width="27" height="25" viewBox="0 0 27 25" fill="none" xmlns="http://www.w3.org/2000/svg">
<path d="M22.95 24.3C22.0725 24.3 21.285 24.0469 20.5875 23.5406C19.89 23.0344 19.4062 22.3875 19.1363 21.6H12.15C10.665 21.6 9.39375 21.0712 8.33625 20.0137C7.27875 18.9562 6.75 17.685 6.75 16.2C6.75 14.715 7.27875 13.4437 8.33625 12.3862C9.39375 11.3287 10.665 10.8 12.15 10.8H14.85C15.5925 10.8 16.2281 10.5356 16.7569 10.0069C17.2856 9.47812 17.55 8.8425 17.55 8.1C17.55 7.3575 17.2856 6.72187 16.7569 6.19312C16.2281 5.66437 15.5925 5.4 14.85 5.4H7.86375C7.57125 6.1875 7.08188 6.83437 6.39563 7.34062C5.70938 7.84687 4.9275 8.1 4.05 8.1C2.925 8.1 1.96875 7.70625 1.18125 6.91875C0.39375 6.13125 0 5.175 0 4.05C0 2.925 0.39375 1.96875 1.18125 1.18125C1.96875 0.39375 2.925 0 4.05 0C4.9275 0 5.70938 0.253125 6.39563 0.759375C7.08188 1.26562 7.57125 1.9125 7.86375 2.7H14.85C16.335 2.7 17.6063 3.22875 18.6638 4.28625C19.7213 5.34375 20.25 6.615 20.25 8.1C20.25 9.585 19.7213 10.8562 18.6638 11.9137C17.6063 12.9712 16.335 13.5 14.85 13.5H12.15C11.4075 13.5 10.7719 13.7644 10.2431 14.2931C9.71438 14.8219 9.45 15.4575 9.45 16.2C9.45 16.9425 9.71438 17.5781 10.2431 18.1069C10.7719 18.6356 11.4075 18.9 12.15 18.9H19.1363C19.4288 18.1125 19.9181 17.4656 20.6044 16.9594C21.2906 16.4531 22.0725 16.2 22.95 16.2C24.075 16.2 25.0313 16.5937 25.8188 17.3812C26.6063 18.1687 27 19.125 27 20.25C27 21.375 26.6063 22.3312 25.8188 23.1187C25.0313 23.9062 24.075 24.3 22.95 24.3ZM4.05 5.4C4.4325 5.4 4.75313 5.27062 5.01188 5.01187C5.27063 4.75312 5.4 4.4325 5.4 4.05C5.4 3.6675 5.27063 3.34687 5.01188 3.08812C4.75313 2.82937 4.4325 2.7 4.05 2.7C3.6675 2.7 3.34688 2.82937 3.08813 3.08812C2.82938 3.34687 2.7 3.6675 2.7 4.05C2.7 4.4325 2.82938 4.75312 3.08813 5.01187C3.34688 5.27062 3.6675 5.4 4.05 5.4Z" fill="#555555"/>
</svg>
