<svg width="22" height="24" viewBox="0 0 22 24" fill="none" xmlns="http://www.w3.org/2000/svg">
<path d="M2.99998 21.3333H19L17.1 8H4.89998L2.99998 21.3333ZM11 5.33333C11.3778 5.33333 11.6944 5.20556 11.95 4.95C12.2055 4.69444 12.3333 4.37778 12.3333 4C12.3333 3.62222 12.2055 3.30556 11.95 3.05C11.6944 2.79444 11.3778 2.66667 11 2.66667C10.6222 2.66667 10.3055 2.79444 10.05 3.05C9.79442 3.30556 9.66664 3.62222 9.66664 4C9.66664 4.37778 9.79442 4.69444 10.05 4.95C10.3055 5.20556 10.6222 5.33333 11 5.33333ZM14.7666 5.33333H17.1C17.7666 5.33333 18.3444 5.55556 18.8333 6C19.3222 6.44444 19.6222 6.98889 19.7333 7.63333L21.6333 20.9667C21.7444 21.7667 21.5389 22.4722 21.0166 23.0833C20.4944 23.6944 19.8222 24 19 24H2.99998C2.17775 24 1.50553 23.6944 0.983309 23.0833C0.461087 22.4722 0.255531 21.7667 0.366642 20.9667L2.26664 7.63333C2.37775 6.98889 2.67775 6.44444 3.16664 6C3.65553 5.55556 4.23331 5.33333 4.89998 5.33333H7.23331C7.16664 5.11111 7.11109 4.89444 7.06664 4.68333C7.0222 4.47222 6.99998 4.24444 6.99998 4C6.99998 2.88889 7.38886 1.94444 8.16664 1.16667C8.94442 0.388889 9.88887 0 11 0C12.1111 0 13.0555 0.388889 13.8333 1.16667C14.6111 1.94444 15 2.88889 15 4C15 4.24444 14.9778 4.47222 14.9333 4.68333C14.8889 4.89444 14.8333 5.11111 14.7666 5.33333Z" fill="#555555"/>
</svg>
