<svg width="25" height="24" viewBox="0 0 25 24" fill="none" xmlns="http://www.w3.org/2000/svg">
<path d="M12.5 12C10.85 12 9.4375 11.4125 8.2625 10.2375C7.0875 9.0625 6.5 7.65 6.5 6C6.5 4.35 7.0875 2.9375 8.2625 1.7625C9.4375 0.5875 10.85 0 12.5 0C14.15 0 15.5625 0.5875 16.7375 1.7625C17.9125 2.9375 18.5 4.35 18.5 6C18.5 7.65 17.9125 9.0625 16.7375 10.2375C15.5625 11.4125 14.15 12 12.5 12ZM0.5 24V19.8C0.5 18.95 0.71875 18.1688 1.15625 17.4563C1.59375 16.7438 2.175 16.2 2.9 15.825C4.45 15.05 6.025 14.4688 7.625 14.0813C9.225 13.6938 10.85 13.5 12.5 13.5C14.15 13.5 15.775 13.6938 17.375 14.0813C18.975 14.4688 20.55 15.05 22.1 15.825C22.825 16.2 23.4062 16.7438 23.8438 17.4563C24.2813 18.1688 24.5 18.95 24.5 19.8V24H0.5ZM3.5 21H21.5V19.8C21.5 19.525 21.4313 19.275 21.2938 19.05C21.1562 18.825 20.975 18.65 20.75 18.525C19.4 17.85 18.0375 17.3438 16.6625 17.0063C15.2875 16.6688 13.9 16.5 12.5 16.5C11.1 16.5 9.7125 16.6688 8.3375 17.0063C6.9625 17.3438 5.6 17.85 4.25 18.525C4.025 18.65 3.84375 18.825 3.70625 19.05C3.56875 19.275 3.5 19.525 3.5 19.8V21ZM12.5 9C13.325 9 14.0313 8.70625 14.6188 8.11875C15.2063 7.53125 15.5 6.825 15.5 6C15.5 5.175 15.2063 4.46875 14.6188 3.88125C14.0313 3.29375 13.325 3 12.5 3C11.675 3 10.9688 3.29375 10.3813 3.88125C9.79375 4.46875 9.5 5.175 9.5 6C9.5 6.825 9.79375 7.53125 10.3813 8.11875C10.9688 8.70625 11.675 9 12.5 9Z" fill="#555555"/>
</svg>
