<svg width="31" height="24" viewBox="0 0 31 24" fill="none" xmlns="http://www.w3.org/2000/svg">
<path d="M9.16667 24C8.05556 24 7.11111 23.5625 6.33333 22.6875C5.55556 21.8125 5.16667 20.75 5.16667 19.5H1.83333L2.43333 16.5H6.2C6.57778 16.025 7.02222 15.6563 7.53333 15.3938C8.04445 15.1313 8.58889 15 9.16667 15C9.74444 15 10.2889 15.1313 10.8 15.3938C11.3111 15.6563 11.7556 16.025 12.1333 16.5H17.7L20.5 3H5.9L6.03333 2.3625C6.16667 1.6625 6.47222 1.09375 6.95 0.65625C7.42778 0.21875 7.98889 0 8.63333 0H23.8333L22.6 6H26.5L30.5 12L29.1667 19.5H26.5C26.5 20.75 26.1111 21.8125 25.3333 22.6875C24.5556 23.5625 23.6111 24 22.5 24C21.3889 24 20.4444 23.5625 19.6667 22.6875C18.8889 21.8125 18.5 20.75 18.5 19.5H13.1667C13.1667 20.75 12.7778 21.8125 12 22.6875C11.2222 23.5625 10.2778 24 9.16667 24ZM21.0667 13.5H27.5L27.6333 12.7125L25.1667 9H22L21.0667 13.5ZM20.4333 3.2625L20.5 3L17.7 16.5L17.7667 16.2375L18.9 10.7625L20.4333 3.2625ZM0.5 13.9875L1.16667 10.9875H8.5L7.83333 13.9875H0.5ZM3.16667 8.5125L3.83333 5.5125H12.5L11.8333 8.5125H3.16667ZM9.16667 21C9.54445 21 9.86111 20.8563 10.1167 20.5688C10.3722 20.2812 10.5 19.925 10.5 19.5C10.5 19.075 10.3722 18.7188 10.1167 18.4313C9.86111 18.1438 9.54445 18 9.16667 18C8.78889 18 8.47222 18.1438 8.21667 18.4313C7.96111 18.7188 7.83333 19.075 7.83333 19.5C7.83333 19.925 7.96111 20.2812 8.21667 20.5688C8.47222 20.8563 8.78889 21 9.16667 21ZM22.5 21C22.8778 21 23.1944 20.8563 23.45 20.5688C23.7056 20.2812 23.8333 19.925 23.8333 19.5C23.8333 19.075 23.7056 18.7188 23.45 18.4313C23.1944 18.1438 22.8778 18 22.5 18C22.1222 18 21.8056 18.1438 21.55 18.4313C21.2944 18.7188 21.1667 19.075 21.1667 19.5C21.1667 19.925 21.2944 20.2812 21.55 20.5688C21.8056 20.8563 22.1222 21 22.5 21Z" fill="#555555"/>
</svg>
